<svg xmlns="http://www.w3.org/2000/svg" xmlns:xlink="http://www.w3.org/1999/xlink" viewBox="0 0 362 169">
  <defs>
    <style>
      .cls-1 {
        clip-path: url(#clip-Web_1920_5);
      }

      .cls-2 {
        fill: #00b5ad;
      }

      .cls-3 {
        fill: #fff;
      }

      .cls-4 {
        fill: #040404;
      }
    </style>
    <clipPath id="clip-Web_1920_5">
      <rect width="362" height="169"/>
    </clipPath>
  </defs>
  <g id="Web_1920_5" data-name="Web 1920 – 5" class="cls-1">
    <g id="Group_332" data-name="Group 332" transform="translate(-40 8)">
      <rect id="Rectangle_46" data-name="Rectangle 46" class="cls-2" width="339.852" height="98.862" rx="49" transform="translate(55 23)"/>
      <g id="Group_330" data-name="Group 330" transform="translate(82.018 39.204)">
        <g id="XMLID_93_" transform="translate(0 0)">
          <path id="XMLID_102_" class="cls-3" d="M162.583,21.11V39.07c0,.718-.435,1.006-1.883,1.149-6.375.647-12.75,1.437-19.124,2.155a11.073,11.073,0,0,1-3.043.144c-2.463-.5-3.187.287-3.187,1.149-.145.862-1.159.575-2.028.575-1.3,0-.869-.5-.869-.862-.145-.647,1.3-1.293.145-1.8a21.057,21.057,0,0,0-3.477-.718c-5.216-1.006-5.216-1.006-5.216-3.736V3.15c0-1.006.29-1.509,2.463-1.652,2.753-.287,5.506-.718,8.258-1.149a28.567,28.567,0,0,1,7.824-.216c6.085.575,12.17,1.006,18.255,1.652,1.449.144,1.883.431,1.883,1.149Zm-11.735-2.3h-6.375c-3.767,0-3.912.144-3.477,2.012.145.431.435.5,1.159.5,5.8,0,11.446,0,17.241-.359,2.173-.144.724-1.006,1.014-1.509.29-.575-.435-.647-1.449-.647ZM141.141,4.874c-.724,1.078.58,1.221,2.318,1.365,5.216.431,10.432.718,15.647.934.58,0,1.159.144,1.449-.216.58-.575-.58-1.724-1.883-1.8C153.6,4.73,148.385,4.3,143.314,3.8,141.576,3.653,140.561,3.724,141.141,4.874Zm16.372,6.969h1.449c.869,0,1.883.144,1.594-.575-.145-.5.869-1.293-1.3-1.437L142.3,8.753a2,2,0,0,0-1.159.144c-1.014.718.145,2.227,1.883,2.371C148.1,11.483,152.876,11.7,157.513,11.843Zm-16.372,18.32c-.58,1.078.435,1.221,2.318,1.078,1.594-.144,3.332-.216,5.071-.287,3.477-.216,6.809-.431,10.287-.647,2.173-.144,1.883-.934,1.739-1.652,0-.934-1.449-.5-2.173-.5-5.071.216-10,.5-15.068.718C141.576,29.013,140.561,29.228,141.141,30.162Zm0,9.986c.145.431-.724,1.293,1.594,1.006,5.361-.647,10.576-1.293,15.937-1.868,2.028-.216,2.463-1.006,2.173-1.724-.29-.79-1.883-.359-2.753-.287-4.926.5-9.852,1.078-14.778,1.581C141.576,39,140.706,39.286,141.141,40.148Zm9.707-23.923h7.969c.869,0,1.883.072,1.739-.647,0-.575,0-1.149-1.594-1.149-5.506-.216-11.011-.359-16.517-.575q-1.521-.108-1.3.647c0,.287.145.647,0,.934-.145.718.29.934,1.739.862C145.487,16.153,148.1,16.225,150.848,16.225ZM147.371,26h0a14.075,14.075,0,0,1,1.739-.072c3.187-.072,6.23-.216,9.417-.287,2.463-.072,1.883-.934,2.028-1.652.145-.862-1.3-.575-2.028-.575-3.622-.072-7.244.216-10.866.287-1.739.072-3.332.216-5.071.216-2.318.072-1.3.862-1.449,1.437-.145.718.869.575,1.739.575C144.328,26,145.922,26,147.371,26Zm-6.23,9.2c-.724,1.149.58,1.149,2.318,1.006.724-.072,1.449-.144,2.318-.216,4.346-.431,8.838-.862,13.184-1.293,2.318-.216,1.594-1.078,1.449-1.724-.145-.718-1.449-.287-2.173-.287-5.071.359-10.142.79-15.068,1.221C141.72,34.041,140.561,34.185,141.141,35.191Z" transform="translate(55.609 0.04)"/>
          <path id="XMLID_101_" class="cls-3" d="M182.961,34.375c1.449-1.437,1.3-2.8,1.594-4.167,1.449-5.675,2.608-11.351,3.767-17.026a25.253,25.253,0,0,0,.58-3.233c.145-.647.579-.862,2.028-.862,2.463.072,4.926,0,7.389,0,.58,0,1.449-.216,1.594.431.145.575-.724.5-1.3.5-1.159-.072-1.159.287-1.159.718V41.918c0,.5.145.79,1.449.718.724-.072,1.159,0,1.159.5s-.724.431-1.3.431H188.467c-.58,0-1.449.144-1.449-.431,0-.5.724-.431,1.3-.431.869,0,1.3-.144,1.3-.575,0-6.825,0-13.578-.435-20.4-.435,1.94-.869,3.808-1.3,5.747-1.159,5.173-2.318,10.273-3.477,15.446-.145.5-.29.79-1.594.718a32.55,32.55,0,0,1-4.636-.072c-1.449-.359-.869-1.365-1.014-2.083-1.3-4.454-2.463-8.98-3.622-13.434-.58-2.3-1.159-4.526-1.883-6.9-.435.359-.29.647-.29.934V41.631c0,.5-.29,1.221,1.594,1.078.58-.072.869.144.869.431,0,.431-.435.431-1.014.431h-5.506c-.579,0-1.014-.072-1.014-.359,0-.359.145-.575.869-.5,1.594.144,1.594-.431,1.594-.934V11.1c0-.647,0-1.149-1.739-1.006-.724.072-.724-.216-.724-.5s.29-.431.869-.431h8.693c1.014,0,1.014.287,1.159.647.869,3.664,1.884,7.328,2.9,10.992C180.643,25.251,181.8,29.7,182.961,34.375Z" transform="translate(74.639 -2.52)"/>
          <path id="XMLID_100_" class="cls-4" d="M49.19,25.8V11.068c0-.647,0-1.149-1.739-.934-.58.072-.869-.144-.869-.431,0-.359.145-.5.869-.5H58.607c.58,0,.869.072.869.431s-.29.575-1.014.5c-1.739-.144-1.594.359-1.594.934,0,9.052-.145,18.1.145,27.228.145,3.592-6.23,5.819-12.75,5.675a21.663,21.663,0,0,1-3.043-.216c-5.361-.862-8.113-2.586-8.113-5.388V11.14c0-.5.145-1.078-1.594-.934-.724.072-1.014-.144-1.014-.5,0-.431.58-.431,1.159-.431H42.38c.58,0,1.014,0,1.159.431,0,.431-.435.575-1.159.5-1.159-.072-1.3.216-1.3.718V40.81c0,1.365,1.594,2.227,3.912,2.227s3.912-.934,3.912-2.3C49.19,35.709,49.19,30.752,49.19,25.8Z" transform="translate(13.689 -2.562)"/>
          <path id="XMLID_96_" class="cls-4" d="M19.269,25.5c5.216,1.078,6.954,3.017,6.665,5.6a28.617,28.617,0,0,0,0,7.04c.435,3.3-5.8,5.388-10.432,5.46-4.781.072-9.417,0-14.2,0-.58,0-1.3.144-1.3-.431,0-.431.435-.5,1.159-.5,1.3.072,1.3-.287,1.3-.718V10.845c0-.575-.145-.862-1.449-.79-.58.072-1.014,0-1.014-.431s.435-.431,1.014-.431c4.926,0,10-.072,14.923.072,5.071.144,10.287,2.371,9.852,5.388a25.413,25.413,0,0,0,0,5.747c.145,2.227-1.739,3.808-5.8,4.742A3.349,3.349,0,0,1,19.269,25.5Zm-8.693,8.836v7.543c0,.287-.29.647.58.79,3.332.647,6.665-.5,6.665-2.3V28.59c0-2.155-1.159-2.658-5.506-2.73-1.594,0-1.883.216-1.739.934Zm0-16.811v6.681c0,.216-.29.575.435.718,2.9.718,6.809-.431,6.809-2.083V12.785c0-2.155-1.159-2.658-5.506-2.73-1.594,0-1.883.216-1.739.934Z" transform="translate(0 -2.555)"/>
          <path id="XMLID_95_" class="cls-4" d="M71.013,42.706h.29c2.463,0,5.8.431,7.389-.144s.435-2.3.435-3.448a29.143,29.143,0,0,0,0-5.029c0-.575.29-.79,1.594-.79,1.449.072,2.9.072,4.491,0,1.159,0,1.594.072,1.594.718,0,2.945-.145,5.891,0,8.765,0,.647-.29.862-1.739.862-6.665-.072-13.329,0-19.994,0-2.318,0-2.463-.072-1.883-1.293,1.159-2.371,2.318-4.742,3.477-7.04,4.2-8.334,8.258-16.667,12.46-25.144H71.882c-1.449,0-1.159.431-1.159.862v7.759c0,.647-.29.934-1.739.862-1.739-.072-4.2.287-5.361-.144-1.159-.5-.29-1.724-.29-2.586V10.09c0-.647.29-.79,1.594-.79,6.665.072,13.329,0,19.994,0,2.318,0,2.463.144,2.028,1.221-1.014,2.083-2.028,4.095-3.187,6.178-4.2,8.549-8.548,17.1-12.75,25.647Z" transform="translate(28.232 -2.59)"/>
          <path id="XMLID_94_" class="cls-3" d="M101.043,37.5v3.664c0,1.006,1.159,1.581,3.043,1.652,2.028.072,3.622-.431,3.622-1.509.145-2.8.58-5.675-.435-8.477a8.709,8.709,0,0,0-2.753-2.945c-3.043-2.3-5.94-4.6-8.983-6.969-1.594-1.221-2.608-2.586-2.608-4.095,0-1.652-.145-3.377,0-5.029.145-2.443,3.477-4.454,8.4-4.957a23.778,23.778,0,0,1,10.431,1.006c2.608,1.006,4.057,2.3,4.057,3.951v4.813c0,.575-.29.718-1.449.718-2.028-.072-4.781.359-6.085-.144s-.435-1.868-.435-2.874c-.145-1.581,0-3.233,0-4.813-.145-1.365-1.883-2.012-4.346-1.724-1.3.144-2.318.575-2.318,1.221,0,2.874-.58,5.675.29,8.549.29,1.006,1.3,1.8,2.463,2.658,3.043,2.371,6.085,4.67,9.128,7.04,1.883,1.437,2.753,3.017,2.753,4.742,0,1.437-.145,2.945,0,4.382.29,3.089-4.781,5.532-11.735,5.46-5.65-.072-10.432-1.868-11.011-4.167a16.911,16.911,0,0,1-.145-4.67c0-1.8,0-1.8,3.477-1.8,4.636,0,4.636,0,4.636,2.371Z" transform="translate(41.666 -2.415)"/>
        </g>
        <g id="Group_329" data-name="Group 329" transform="translate(144.876 43.534)">
          <path id="XMLID_90_" class="cls-3" d="M155.166,76.753c6.23,1.1,12.17,2.208,18.255,3.4,8.4,1.656,12.75,5.8,12.17,11.5-.58,5.336-5.94,9.107-14.343,9.935-6.665.736-12.894,0-17.965-3.22a3.139,3.139,0,0,1-.724-.46c-2.173-3.22-7.1-2.668-11.156-3.588a3.472,3.472,0,0,0-2.028.46c-10.432,3.68-24.05.092-27.238-7.083C108.369,79.237,119.09,71.786,133,73.258c5.216.552,10.287,1.748,15.5,2.576,3.767.552,4.926.092,5.8-2.3a3.6,3.6,0,0,0,.145-1.748c-.29-.92,0-1.2,1.449-1.288,1.883-.184,1.3.736,1.449,1.2C157.629,73.534,156.615,75.19,155.166,76.753Zm-25.5-1.1h-1.449c-8.548.276-14.633,4.784-13.329,10.027,1.739,6.991,15.213,10.763,22.746,6.991a6.94,6.94,0,0,1,4.781-.46,84.646,84.646,0,0,0,8.548,1.288,4.336,4.336,0,0,1,3.043,1.38c3.767,4.14,9.417,5.7,16.661,4.784,7.679-.92,12.46-6.163,10.432-11.223-1.449-3.4-4.491-5.8-10.287-6.715-8.983-1.38-17.965-2.944-26.948-4.324A79.739,79.739,0,0,0,129.667,75.649Z" transform="translate(-111.374 -70.474)"/>
          <path id="XMLID_88_" class="cls-3" d="M120.556,81.609c.435.092.869.092,1.3.184,1.449.368,1.883-.092,2.173-.828.58-1.748.58-1.748,3.332-1.288.435.092.869.184,1.449.276,1.883.184,2.753.736,1.883,2.024-.724,1.1.435,1.564,2.028,1.564,1.3.092,1.739.276,1.3,1.1a3.235,3.235,0,0,0-.29,1.012c-.58,2.024-.58,2.024-3.767,1.84-1.594-.092-1.739.644-1.883,1.2-.29,1.1-1.014,1.472-2.753,1.012a2.8,2.8,0,0,0-.869-.092c-3.332-.552-3.477-.552-2.753-2.668.29-1.012-.869-.736-1.594-1.012-.869-.276-2.463.092-2.318-.92a4.9,4.9,0,0,1,1.594-3.4A4.714,4.714,0,0,1,120.556,81.609Z" transform="translate(-108.493 -71.19)"/>
          <path id="XMLID_87_" class="cls-3" d="M151.569,98.292c-2.173,0-3.767-.92-3.767-2.3-.145-1.288,1.739-2.3,3.912-2.392,1.883,0,3.332.92,3.477,2.208C155.191,97.188,153.6,98.292,151.569,98.292Z" transform="translate(-95.028 -72.326)"/>
          <path id="XMLID_86_" class="cls-3" d="M160.1,92.815c0,1.656-1.3,2.576-3.622,2.576-2.173,0-3.477-.828-3.477-2.116,0-1.656,1.739-2.668,4.346-2.576A2.376,2.376,0,0,1,160.1,92.815Z" transform="translate(-92.692 -72.093)"/>
          <path id="XMLID_85_" class="cls-3" d="M148.277,93.108c-2.318,0-3.477-.828-3.477-2.392,0-1.288,1.883-2.116,4.491-2.116,1.739.092,3.187,1.012,3.043,2.3C152.334,92.28,150.6,93.2,148.277,93.108Z" transform="translate(-96.372 -71.925)"/>
          <path id="XMLID_84_" class="cls-3" d="M150,87.808c0-1.38,1.449-2.208,3.767-2.208,2.028,0,3.332.828,3.332,2.116,0,1.38-1.739,2.668-3.622,2.668C151.594,90.292,150,89.1,150,87.808Z" transform="translate(-94.038 -71.685)"/>
        </g>
      </g>
    </g>
  </g>
</svg>
