<svg xmlns="http://www.w3.org/2000/svg" xmlns:xlink="http://www.w3.org/1999/xlink" viewBox="0 0 369 169">
  <defs>
    <style>
      .cls-1 {
        clip-path: url(#clip-Web_1920_5);
      }

      .cls-2 {
        fill: #00b5ad;
      }

      .cls-3, .cls-6 {
        fill: #fff;
      }

      .cls-4 {
        fill: #040404;
      }

      .cls-5 {
        fill: #12b1f5;
        stroke-width: 2px;
      }

      .cls-5, .cls-6 {
        stroke: #fff;
      }

      .cls-6 {
        stroke-width: 0.5px;
        font-size: 18px;
        font-family: SukhumvitSet-Text, Sukhumvit Set;
      }

      .cls-7 {
        stroke: none;
      }

      .cls-8 {
        fill: none;
      }
    </style>
    <clipPath id="clip-Web_1920_5">
      <rect width="369" height="169"/>
    </clipPath>
  </defs>
  <g id="Web_1920_5" data-name="Web 1920 – 5" class="cls-1">
    <g id="Group_332" data-name="Group 332" transform="translate(-40 8)">
      <rect id="Rectangle_46" data-name="Rectangle 46" class="cls-2" width="341.8" height="103.056" rx="49" transform="translate(55 23)"/>
      <g id="Group_330" data-name="Group 330" transform="translate(82.172 39.891)">
        <g id="XMLID_93_" transform="translate(0 0)">
          <path id="XMLID_102_" class="cls-3" d="M162.805,22.007V40.729c0,.749-.437,1.048-1.894,1.2-6.411.674-12.823,1.5-19.234,2.247a10.75,10.75,0,0,1-3.06.15c-2.477-.524-3.206.3-3.206,1.2-.146.9-1.166.6-2.04.6-1.311,0-.874-.524-.874-.9-.146-.674,1.311-1.348.146-1.872a20.529,20.529,0,0,0-3.5-.749c-5.246-1.048-5.246-1.048-5.246-3.894V3.285c0-1.048.291-1.573,2.477-1.722,2.769-.3,5.537-.749,8.306-1.2A27.731,27.731,0,0,1,142.551.14c6.12.6,12.24,1.048,18.36,1.722,1.457.15,1.894.449,1.894,1.2Zm-11.8-2.4h-6.411c-3.789,0-3.934.15-3.5,2.1.146.449.437.524,1.166.524,5.828,0,11.511,0,17.34-.374,2.186-.15.729-1.048,1.02-1.573.291-.6-.437-.674-1.457-.674ZM141.24,5.082c-.729,1.123.583,1.273,2.331,1.423,5.246.449,10.491.749,15.737.974.583,0,1.166.15,1.457-.225.583-.6-.583-1.8-1.894-1.872-5.1-.449-10.346-.9-15.446-1.423C141.677,3.809,140.657,3.884,141.24,5.082Zm16.466,7.264h1.457c.874,0,1.894.15,1.6-.6-.146-.524.874-1.348-1.311-1.5L142.406,9.126c-.437,0-.874-.075-1.166.15-1.02.749.146,2.322,1.894,2.471C148.234,11.972,153.043,12.2,157.705,12.347Zm-16.466,19.1c-.583,1.123.437,1.273,2.331,1.123,1.6-.15,3.351-.225,5.1-.3,3.5-.225,6.848-.449,10.346-.674,2.186-.15,1.894-.974,1.749-1.722,0-.974-1.457-.524-2.186-.524-5.1.225-10.054.524-15.154.749C141.677,30.245,140.657,30.47,141.24,31.443Zm0,10.41c.146.449-.729,1.348,1.6,1.048,5.391-.674,10.637-1.348,16.028-1.947,2.04-.225,2.477-1.048,2.186-1.8-.291-.824-1.894-.374-2.769-.3-4.954.524-9.908,1.123-14.863,1.648C141.677,40.655,140.8,40.954,141.24,41.853ZM151,16.915h8.014c.874,0,1.894.075,1.749-.674,0-.6,0-1.2-1.6-1.2-5.537-.225-11.074-.374-16.611-.6q-1.53-.112-1.311.674c0,.3.146.674,0,.974-.146.749.291.974,1.749.9C145.611,16.84,148.234,16.915,151,16.915Zm-3.5,10.185h0a13.661,13.661,0,0,1,1.749-.075c3.206-.075,6.266-.225,9.471-.3,2.477-.075,1.894-.974,2.04-1.722.146-.9-1.311-.6-2.04-.6-3.643-.075-7.286.225-10.928.3-1.749.075-3.351.225-5.1.225-2.331.075-1.311.9-1.457,1.5-.146.749.874.6,1.749.6C144.445,27.1,146.048,27.1,147.505,27.1Zm-6.266,9.586c-.729,1.2.583,1.2,2.331,1.048.729-.075,1.457-.15,2.331-.225,4.371-.449,8.889-.9,13.26-1.348,2.331-.225,1.6-1.123,1.457-1.8-.146-.749-1.457-.3-2.186-.3-5.1.374-10.2.824-15.154,1.273C141.823,35.487,140.657,35.637,141.24,36.685Z" transform="translate(56.638 0.04)"/>
          <path id="XMLID_101_" class="cls-3" d="M183.057,35.449c1.457-1.5,1.311-2.921,1.6-4.344,1.457-5.916,2.623-11.832,3.789-17.749a27.193,27.193,0,0,0,.583-3.37c.146-.674.583-.9,2.04-.9,2.477.075,4.954,0,7.431,0,.583,0,1.457-.225,1.6.449.146.6-.729.524-1.311.524-1.166-.075-1.166.3-1.166.749v32.5c0,.524.146.824,1.457.749.729-.075,1.166,0,1.166.524s-.729.449-1.311.449H188.594c-.583,0-1.457.15-1.457-.449,0-.524.729-.449,1.311-.449.874,0,1.311-.15,1.311-.6,0-7.114,0-14.154-.437-21.268-.437,2.022-.874,3.969-1.311,5.991-1.166,5.392-2.331,10.709-3.5,16.1-.146.524-.291.824-1.6.749-1.6-.075-3.351.225-4.663-.075-1.457-.374-.874-1.423-1.02-2.172-1.311-4.643-2.477-9.361-3.643-14-.583-2.4-1.166-4.718-1.894-7.189-.437.374-.291.674-.291.974v20.37c0,.524-.291,1.273,1.6,1.123.583-.075.874.15.874.449,0,.449-.437.449-1.02.449H167.32c-.583,0-1.02-.075-1.02-.374,0-.374.146-.6.874-.524,1.6.15,1.6-.449,1.6-.974V11.185c0-.674,0-1.2-1.749-1.048-.729.075-.729-.225-.729-.524s.291-.449.874-.449h8.743c1.02,0,1.02.3,1.166.674.874,3.819,1.894,7.639,2.914,11.458C180.726,25.938,181.891,30.581,183.057,35.449Z" transform="translate(76.02 -2.243)"/>
          <path id="XMLID_100_" class="cls-4" d="M49.3,26.5V11.147c0-.674,0-1.2-1.749-.974-.583.075-.874-.15-.874-.449,0-.374.146-.524.874-.524h11.22c.583,0,.874.075.874.449s-.291.6-1.02.524c-1.749-.15-1.6.374-1.6.974,0,9.436-.146,18.872.146,28.383.146,3.744-6.266,6.066-12.823,5.916a21.034,21.034,0,0,1-3.06-.225c-5.391-.9-8.16-2.7-8.16-5.617V11.222c0-.524.146-1.123-1.6-.974-.729.075-1.02-.15-1.02-.524,0-.449.583-.449,1.166-.449H42.448c.583,0,1.02,0,1.166.449,0,.449-.437.6-1.166.524-1.166-.075-1.311.225-1.311.749V42.151c0,1.423,1.6,2.322,3.934,2.322s3.934-.974,3.934-2.4C49.3,36.834,49.3,31.667,49.3,26.5Z" transform="translate(13.942 -2.28)"/>
          <path id="XMLID_96_" class="cls-4" d="M19.38,26.193c5.246,1.123,6.994,3.145,6.7,5.841a30.911,30.911,0,0,0,0,7.339c.437,3.445-5.829,5.617-10.491,5.692-4.809.075-9.471,0-14.28,0-.583,0-1.311.15-1.311-.449,0-.449.437-.524,1.166-.524,1.311.075,1.311-.3,1.311-.749V10.916c0-.6-.146-.9-1.457-.824-.583.075-1.02,0-1.02-.449s.437-.449,1.02-.449c4.954,0,10.054-.075,15.008.075,5.1.15,10.346,2.471,9.908,5.617a27.452,27.452,0,0,0,0,5.991c.146,2.322-1.749,3.969-5.829,4.943A3.323,3.323,0,0,1,19.38,26.193ZM10.637,35.4v7.863c0,.3-.291.674.583.824,3.351.674,6.7-.524,6.7-2.4V29.414c0-2.247-1.166-2.771-5.537-2.846-1.6,0-1.894.225-1.749.974Zm0-17.524v6.965c0,.225-.291.6.437.749,2.914.749,6.848-.449,6.848-2.172V12.938c0-2.247-1.166-2.771-5.537-2.846-1.6,0-1.894.225-1.749.974Z" transform="translate(0 -2.274)"/>
          <path id="XMLID_95_" class="cls-4" d="M71.059,44.123h.291c2.477,0,5.828.449,7.431-.15s.437-2.4.437-3.595a31.484,31.484,0,0,0,0-5.242c0-.6.291-.824,1.6-.824,1.457.075,2.914.075,4.517,0,1.166,0,1.6.075,1.6.749,0,3.07-.146,6.141,0,9.136,0,.674-.291.9-1.749.9-6.7-.075-13.406,0-20.108,0-2.331,0-2.477-.075-1.894-1.348,1.166-2.471,2.331-4.943,3.5-7.339,4.226-8.687,8.306-17.374,12.531-26.211H71.933c-1.457,0-1.166.449-1.166.9v8.088c0,.674-.291.974-1.749.9-1.749-.075-4.226.3-5.391-.15-1.166-.524-.291-1.8-.291-2.7V10.124c0-.674.291-.824,1.6-.824,6.7.075,13.406,0,20.108,0,2.331,0,2.477.15,2.04,1.273-1.02,2.172-2.04,4.269-3.206,6.44-4.226,8.912-8.6,17.824-12.823,26.735Z" transform="translate(28.754 -2.305)"/>
          <path id="XMLID_94_" class="cls-3" d="M101.09,38.725v3.819c0,1.048,1.166,1.648,3.06,1.722,2.04.075,3.643-.449,3.643-1.573.146-2.921.583-5.916-.437-8.837a8.963,8.963,0,0,0-2.769-3.07c-3.06-2.4-5.974-4.793-9.034-7.264-1.6-1.273-2.623-2.7-2.623-4.269,0-1.722-.146-3.52,0-5.242.146-2.546,3.5-4.643,8.451-5.167a23.118,23.118,0,0,1,10.491,1.048c2.623,1.048,4.08,2.4,4.08,4.119v5.018c0,.6-.291.749-1.457.749-2.04-.075-4.809.374-6.12-.15s-.437-1.947-.437-3c-.146-1.648,0-3.37,0-5.018-.146-1.423-1.894-2.1-4.371-1.8-1.311.15-2.331.6-2.331,1.273,0,3-.583,5.916.291,8.912.291,1.048,1.311,1.872,2.477,2.771,3.06,2.471,6.12,4.868,9.18,7.339a6.243,6.243,0,0,1,2.769,4.943c0,1.5-.146,3.07,0,4.568.291,3.22-4.809,5.766-11.8,5.692-5.683-.075-10.491-1.947-11.074-4.344A18.263,18.263,0,0,1,92.93,36.1c0-1.872,0-1.872,3.5-1.872,4.663,0,4.663,0,4.663,2.471Z" transform="translate(42.437 -2.149)"/>
        </g>
        <g id="Group_329" data-name="Group 329" transform="translate(145.707 45.381)">
          <path id="XMLID_90_" class="cls-3" d="M155.417,77.02c6.266,1.151,12.24,2.3,18.36,3.548,8.451,1.726,12.823,6.041,12.24,11.987-.583,5.562-5.974,9.494-14.426,10.357-6.7.767-12.968,0-18.068-3.356a3.147,3.147,0,0,1-.729-.479c-2.186-3.356-7.14-2.781-11.22-3.74a3.393,3.393,0,0,0-2.04.479c-10.491,3.836-24.188.1-27.394-7.384-3.789-8.822,6.994-16.59,20.983-15.055,5.246.575,10.346,1.822,15.591,2.685,3.788.575,4.954.1,5.829-2.4a3.888,3.888,0,0,0,.146-1.822c-.291-.959,0-1.247,1.457-1.343,1.894-.192,1.311.767,1.457,1.247C157.894,73.663,156.874,75.39,155.417,77.02Zm-25.645-1.151h-1.457c-8.6.288-14.717,4.987-13.406,10.452,1.749,7.288,15.3,11.22,22.877,7.288a6.757,6.757,0,0,1,4.809-.479,82.342,82.342,0,0,0,8.6,1.343,4.3,4.3,0,0,1,3.06,1.438c3.789,4.315,9.471,5.945,16.757,4.987,7.723-.959,12.531-6.425,10.491-11.7-1.457-3.548-4.517-6.041-10.346-7-9.034-1.438-18.068-3.069-27.1-4.507C139.388,76.828,134.726,75.869,129.771,75.869Z" transform="translate(-111.374 -70.474)"/>
          <path id="XMLID_88_" class="cls-3" d="M120.571,81.7c.437.1.874.1,1.311.192,1.457.384,1.894-.1,2.186-.863.583-1.822.583-1.822,3.351-1.343.437.1.874.192,1.457.288,1.894.192,2.769.767,1.894,2.11-.729,1.151.437,1.63,2.04,1.63,1.311.1,1.749.288,1.311,1.151a3.468,3.468,0,0,0-.291,1.055c-.583,2.11-.583,2.11-3.789,1.918-1.6-.1-1.749.671-1.894,1.247-.291,1.151-1.02,1.534-2.769,1.055a2.723,2.723,0,0,0-.874-.1c-3.351-.575-3.5-.575-2.769-2.781.291-1.055-.874-.767-1.6-1.055-.874-.288-2.477.1-2.331-.959a5.189,5.189,0,0,1,1.6-3.548A4.576,4.576,0,0,1,120.571,81.7Z" transform="translate(-108.44 -70.841)"/>
          <path id="XMLID_87_" class="cls-3" d="M151.591,98.491c-2.186,0-3.789-.959-3.789-2.4-.146-1.343,1.749-2.4,3.934-2.493,1.894,0,3.351.959,3.5,2.3C155.234,97.34,153.631,98.491,151.591,98.491Z" transform="translate(-94.726 -71.423)"/>
          <path id="XMLID_86_" class="cls-3" d="M160.14,92.905c0,1.726-1.311,2.685-3.643,2.685-2.186,0-3.5-.863-3.5-2.206,0-1.726,1.749-2.781,4.371-2.685A2.412,2.412,0,0,1,160.14,92.905Z" transform="translate(-92.346 -71.304)"/>
          <path id="XMLID_85_" class="cls-3" d="M148.3,93.3c-2.331,0-3.5-.863-3.5-2.493,0-1.343,1.894-2.206,4.517-2.206,1.749.1,3.206,1.055,3.06,2.4C152.377,92.436,150.628,93.395,148.3,93.3Z" transform="translate(-96.095 -71.218)"/>
          <path id="XMLID_84_" class="cls-3" d="M150,87.9c0-1.438,1.457-2.3,3.789-2.3,2.04,0,3.351.863,3.351,2.206,0,1.438-1.749,2.781-3.643,2.781C151.6,90.491,150,89.244,150,87.9Z" transform="translate(-93.718 -71.095)"/>
        </g>
      </g>
    </g>
    <g id="Group_335" data-name="Group 335" transform="translate(-25.942 81.701) rotate(-20)">
      <g id="Rectangle_49" data-name="Rectangle 49" class="cls-5" transform="translate(239 127.655)">
        <rect class="cls-7" width="121.363" height="27.085" rx="13.543"/>
        <rect class="cls-8" x="1" y="1" width="119.363" height="25.085" rx="12.543"/>
      </g>
      <text id="For_Instructor" data-name="For Instructor" class="cls-6" transform="translate(247.23 146.58)"><tspan x="0" y="0">For Instructor</tspan></text>
    </g>
  </g>
</svg>
